<svg xmlns="http://www.w3.org/2000/svg" xmlns:xlink="http://www.w3.org/1999/xlink" width="262" height="98" viewBox="0 0 262 98">
    <defs>
        <path id="prefix__a" d="M194.616 0c14.477 0 26.213 11.392 26.213 25.443 0 14.054-11.736 25.442-26.213 25.442-14.478 0-26.214-11.388-26.214-25.442C168.402 11.392 180.138 0 194.616 0zM77.132.004c14.473 0 26.213 11.386 26.213 25.44 0 1.315-.103 2.605-.301 3.864H91.81l.001-.012H62.45c1.74 6.288 7.65 10.913 14.682 10.913 5.09 0 9.586-2.427 12.344-6.149h12.304c-3.642 9.803-13.293 16.824-24.648 16.824-14.48 0-26.22-11.391-26.22-25.44 0-14.054 11.74-25.44 26.22-25.44zM15.594 1.335L26.61 18.358 37.625 1.335h15.59L33.987 32.994v16.258H19.232V32.994L0 1.335h15.594zm137.281 0v31.806c0 2.154 1.8 3.901 4.02 3.901h7.157v12.031h-12.396c-6.174 0-11.177-4.857-11.177-10.85V1.336h12.396zm-30.515 0v31.806c0 2.154 1.799 3.901 4.02 3.901h7.157v12.031h-12.396c-6.172 0-11.176-4.857-11.176-10.85V1.336h12.395zm72.256 9.346c-8.402 0-15.21 6.607-15.21 14.762 0 8.157 6.808 14.764 15.21 14.764 8.403 0 15.213-6.607 15.213-14.764 0-8.155-6.81-14.762-15.213-14.762zm-2.85 10.827l2.957 7.12h-1.045l-.649-1.58h-3.65l-.65 1.58h-1.046l2.948-7.12h1.135zm6.423 0c2.279 0 3.763 1.547 3.763 3.565 0 2.028-1.484 3.556-3.763 3.556h-2.507v-7.12h2.507zm0 .79h-1.594v5.54h1.594c1.782 0 2.817-1.237 2.817-2.765 0-1.537-1.002-2.774-2.817-2.774zm-6.986.127l-1.56 3.834h3.112l-1.552-3.834zM77.133 10.68c-6.47 0-11.996 3.922-14.193 9.448h28.385c-2.197-5.526-7.723-9.448-14.193-9.448z"/>
    </defs>
    <g fill="none" fill-rule="evenodd" transform="translate(20.586 24.5)">
        <mask id="prefix__b" fill="#fff">
            <use xlink:href="#prefix__a"/>
        </mask>
        <use fill="#19191A" xlink:href="#prefix__a"/>
        <g fill="#000" mask="url(#prefix__b)">
            <path d="M0 0H262V99.885H0z" transform="translate(-29.943 -22.615)"/>
        </g>
    </g>
</svg>
